<?xml version="1.0" encoding="utf-8"?>
<!-- Generator: Adobe Illustrator 24.0.1, SVG Export Plug-In . SVG Version: 6.00 Build 0)  -->
<svg version="1.1" id="Layer_1" xmlns="http://www.w3.org/2000/svg" xmlns:xlink="http://www.w3.org/1999/xlink" x="0px" y="0px"
	 viewBox="0 0 235.8 248.6" style="enable-background:new 0 0 235.8 248.6;" xml:space="preserve">
<style type="text/css">
	.st0{fill-rule:evenodd;clip-rule:evenodd;fill:#7DCFB6;}
	.st1{fill-rule:evenodd;clip-rule:evenodd;fill:#5D9A89;}
	.st2{fill-rule:evenodd;clip-rule:evenodd;fill:#168DA2;}
	.st3{fill-rule:evenodd;clip-rule:evenodd;fill:#97D9EE;}
</style>
<path class="st0" d="M13.1,0.7L13.7,0c10,6.2,21.9,7.8,28,18.3c4.1,7.1,5.6,17.1,5.1,28.5c-27.7,0.8-27-26.9-34.6-46.3
	C12.2,0.5,13.1,0.7,13.1,0.7z"/>
<path class="st1" d="M53.4,28.5c0.9-0.1,1.1,0.6,2,0.5c-1.5,5-5.7,11.7-2,17.3c-0.7,1.2-3-0.3-4.1-0.5C48.6,37.9,51,33.2,53.4,28.5z
	"/>
<path class="st1" d="M113,132.8v5.6c-1.7,33.8-16.7,54.2-48.8,57.5H50.9C21.7,192.5,6.6,175,0,149.1v-9.7
	c0.5-23.6,17.4-35,24.9-51.9c3-6.7,3.2-14.3,5.1-20.9c1.8-6.4,6.4-13.3,10.7-15.8c6-3.5,16.2-3.9,22.4-1.5
	c6.3,2.5,12,10.3,16.3,16.8c4.7,7.1,8.5,15,12.2,21.4C100.1,102,111.1,112.9,113,132.8L113,132.8z"/>
<path class="st2" d="M145,53.4l0.6-0.7c10,6.2,21.9,7.8,28,18.3c4.1,7.1,5.6,17.1,5.1,28.5c-27.7,0.8-27-26.9-34.6-46.3L145,53.4z"
	/>
<path class="st3" d="M185.3,81.2c0.9-0.1,1.1,0.6,2,0.5c-1.5,5-5.7,11.7-2,17.3c-0.7,1.2-3-0.3-4.1-0.5
	C180.5,90.6,182.9,85.9,185.3,81.2z"/>
<path class="st3" d="M225.2,218.7c-10.6,2.5-17.8-4.8-15.2-15.5c-9.4-5.7-9.4-16-0.1-21.6c-2.5-10.6,4.8-17.8,15.5-15.2
	c2.8-4.5,6.5-6.8,10.4-7c-3.9-6.5-8.4-12.4-12.3-19.2c-3.8-6.4-7.5-14.3-12.2-21.4c-4.3-6.5-10-14.3-16.3-16.8
	c-6.2-2.4-16.4-2-22.4,1.5c-4.2,2.5-8.8,9.4-10.7,15.8c-1.9,6.6-2.1,14.2-5.1,20.9c-7.5,16.9-24.4,28.3-24.9,51.9v9.7
	c6.6,25.9,21.7,43.4,50.9,46.8H196c18.9-1.9,31.9-9.8,39.7-22.9C231.8,225.6,228,223.3,225.2,218.7L225.2,218.7z"/>
</svg>
