<?xml version="1.0" encoding="utf-8"?>
<!-- Generator: Adobe Illustrator 24.0.1, SVG Export Plug-In . SVG Version: 6.00 Build 0)  -->
<svg version="1.1" id="Layer_1" xmlns="http://www.w3.org/2000/svg" xmlns:xlink="http://www.w3.org/1999/xlink" x="0px" y="0px"
	 viewBox="0 0 546.3 516.3" style="enable-background:new 0 0 546.3 516.3;" xml:space="preserve">
<style type="text/css">
	.st0{fill:#95C93D;}
	.st1{fill:#F9A61F;}
	.st2{opacity:0.5;clip-path:url(#SVGID_2_);}
	.st3{fill:#E99123;}
	.st4{fill:#391A0F;}
	.st5{fill:#ECBFDA;}
	.st6{opacity:0.3;}
	.st7{fill:#FFFFFF;}
	.st8{fill:#57B247;}
	.st9{fill:#CE5F4D;}
	.st10{fill:#C24739;}
	.st11{opacity:0.1;}
	.st12{fill:#E63938;}
	.st13{fill:#6D5CA8;}
	.st14{fill:#DFBED3;}
	.st15{opacity:0.4;}
	.st16{fill:#D7A6C7;}
</style>
<g>
	<g>
		<g>
			<g>
				<path class="st0" d="M424.2,35c-11.5,0-21.1,55.6-25.6,48.3s4.5-41.9,9.3-64.7S388.7,0.4,388.7,0.4s-24-4.6-19.2,18.2
					c4.7,22.8,13.7,57.4,9.2,64.7S364.6,35,353.1,35s-19.2,12.8-9.6,26.4c9.6,13.7,37.5,41,36.5,81.1h8.6h8.6
					c-1-40.1,26.9-67.4,36.5-81.1C443.4,47.8,435.7,35,424.2,35z"/>
				<g>
					<path class="st1" d="M446.3,161.4c-15.4-31.2-57.6-28.9-57.6-28.9l0,0l0,0c0,0-42.3-2.3-57.6,28.9
						c-15.4,31.2,9.6,262.6,57.6,271.7l0,0l0,0C436.7,423.9,461.6,192.6,446.3,161.4z"/>
					<g>
						<g>
							<defs>
								<path id="SVGID_1_" d="M446.3,161.4c-15.4-31.2-57.6-28.9-57.6-28.9l0,0l0,0c0,0-42.3-2.3-57.6,28.9
									c-15.4,31.2,9.6,262.6,57.6,271.7l0,0l0,0C436.7,423.9,461.6,192.6,446.3,161.4z"/>
							</defs>
							<clipPath id="SVGID_2_">
								<use xlink:href="#SVGID_1_"  style="overflow:visible;"/>
							</clipPath>
							<g class="st2">
								<g>
									<path class="st3" d="M305.9,195.2c24.7-13.3,54.2-22.4,82.7-21.2c7,0.3,6.9-9.9,0-10.2c-30.4-1.3-61.9,8.4-88.2,22.6
										C294.4,189.6,299.8,198.5,305.9,195.2L305.9,195.2z"/>
								</g>
								<g>
									<path class="st3" d="M476.6,217.5c-24.7-13.3-54.2-22.4-82.7-21.2c-7,0.3-6.9-9.9,0-10.2c30.4-1.3,61.9,8.4,88.2,22.6
										C488.1,211.9,482.7,220.8,476.6,217.5L476.6,217.5z"/>
								</g>
								<g>
									<path class="st3" d="M481.8,245.4c-24.7-13.3-54.2-22.4-82.7-21.2c-7,0.3-6.9-9.9,0-10.2c30.4-1.3,61.9,8.4,88.2,22.6
										C493.3,239.8,487.9,248.7,481.8,245.4L481.8,245.4z"/>
								</g>
								<g>
									<path class="st3" d="M286.6,249.8c24.7-13.3,54.2-22.4,82.7-21.2c7,0.3,6.9-9.9,0-10.2c-30.4-1.3-61.9,8.4-88.2,22.6
										C275.1,244.2,280.5,253,286.6,249.8L286.6,249.8z"/>
								</g>
								<g>
									<path class="st3" d="M457.3,284.2c-24.7-13.3-54.2-22.4-82.7-21.2c-7,0.3-6.9-9.9,0-10.2c30.4-1.3,61.9,8.4,88.2,22.6
										C468.9,278.6,463.4,287.5,457.3,284.2L457.3,284.2z"/>
								</g>
								<g>
									<path class="st3" d="M462.6,323.5c-24.7-13.3-54.2-22.4-82.7-21.2c-7,0.3-6.9-9.9,0-10.2c30.4-1.3,61.9,8.4,88.2,22.6
										C474.1,317.9,468.6,326.8,462.6,323.5L462.6,323.5z"/>
								</g>
								<g>
									<path class="st3" d="M305.9,344.3c24.7-13.3,54.2-22.4,82.7-21.2c7,0.3,6.9-9.9,0-10.2c-30.4-1.3-61.9,8.4-88.2,22.6
										C294.4,338.7,299.8,347.6,305.9,344.3L305.9,344.3z"/>
								</g>
								<g>
									<path class="st3" d="M310.7,392.2c24.7-13.3,54.2-22.4,82.7-21.2c7,0.3,6.9-9.9,0-10.2c-30.4-1.3-61.9,8.4-88.2,22.6
										C299.2,386.6,304.6,395.5,310.7,392.2L310.7,392.2z"/>
								</g>
							</g>
						</g>
					</g>
				</g>
			</g>
			<g>
				<g>
					<g>
						<g>
							<path class="st4" d="M339.2,251.5c0.4-7.8,12.3-7.8,12.7,0c0.1,2.2,3.7,2.2,3.6,0c-0.3-5.3-4.3-9.2-10-9.4
								c-5.6-0.3-9.7,4.5-9.9,9.4C335.5,253.7,339.1,253.7,339.2,251.5L339.2,251.5z"/>
						</g>
					</g>
					<g>
						<g>
							<path class="st4" d="M423.7,251.5c0.4-7.8,12.2-7.8,12.7,0c0.1,2.2,3.7,2.2,3.6,0c-0.3-5.3-4.3-9.2-9.9-9.4
								c-5.6-0.3-9.7,4.5-9.9,9.4C420,253.7,423.6,253.7,423.7,251.5L423.7,251.5z"/>
						</g>
					</g>
				</g>
				<g>
					<path class="st5" d="M358,265.2c0,3.9-5,7.1-11.1,7.1s-11.1-3.2-11.1-7.1s5-7.1,11.1-7.1C353.1,258.1,358,261.3,358,265.2z"/>
					<path class="st5" d="M441.5,265.2c0,3.9-5,7.1-11.1,7.1s-11.1-3.2-11.1-7.1s5-7.1,11.1-7.1S441.5,261.3,441.5,265.2z"/>
				</g>
				<g>
					<path class="st4" d="M397.9,249.8c-0.7,11-18.1,11-18.8,0c-0.1-2.1-3.7-2.2-3.5,0c0.9,15.3,24.9,15.3,25.8,0
						C401.5,247.6,398,247.6,397.9,249.8L397.9,249.8z"/>
				</g>
			</g>
		</g>
		<g class="st6">
			<path class="st7" d="M388.6,160.5c-0.8,8.2,5.4,15.4,14,16.1c8.5,0.8,16.1-5.2,16.9-13.4c0.8-8.2-5.4-15.4-14-16.1
				C396.9,146.4,389.4,152.4,388.6,160.5z"/>
			<path class="st7" d="M416.8,182c-0.5,5.2,3.5,9.8,9,10.3s10.3-3.3,10.8-8.6c0.5-5.2-3.5-9.8-9-10.3
				C422.2,172.9,417.4,176.8,416.8,182z"/>
		</g>
	</g>
	<g>
		<g>
			<g>
				<path class="st0" d="M372.2,376c-21.7-35.6-12.5-48.5-28.7-94c-14.1-39.4-38.7-39.8-47.1-41.1l-0.1-0.3c0,0-0.5,0-1.4,0.1
					c-0.9-0.1-1.4-0.1-1.4-0.1l-0.1,0.3c-8.4,1.2-33.1,1.6-47.1,41.1c-16.2,45.5-7,58.4-28.7,94s-15,83.2,10.8,105.8
					c20.7,18.1,52.8,21.3,64.3,21.9v0.1c0,0,0.8,0,2.1,0c1.4,0,2.1,0,2.1,0v-0.1c11.5-0.6,43.7-3.8,64.3-21.9
					C387.2,459.2,393.9,411.6,372.2,376z"/>
				<g>
					<path class="st8" d="M296.9,509.3c-0.3,0-1,0-2,0c-1.1,0-1.8,0-2,0h-4.5l-0.1-0.4c-15-1.2-43.8-5.7-63.5-22.9
						c-29-25.4-34.4-76-11.9-112.8c12-19.6,14.1-32,16.8-47.6c2.1-12,4.4-25.6,11.4-45.3c13.5-37.8,36.4-42.7,47.9-44.2
						c0,0,5.1-0.3,6-0.2c0.9-0.1,5.9,0.2,5.9,0.2c11.4,1.5,34.4,6.4,47.9,44.2c7,19.7,9.4,33.3,11.4,45.3c2.7,15.6,4.8,28,16.8,47.6
						c22.5,36.8,17.1,87.4-11.9,112.8c-19.7,17.2-48.4,21.7-63.4,22.9l-0.1,0.3L296.9,509.3z M294.9,498.2h0.2c0.2,0,0.3,0,0.5,0
						l1.2-0.1c9.3-0.5,41.3-3.3,61-20.5c24.7-21.6,29.2-66.9,9.8-98.8c-13.1-21.4-15.5-35.3-18.2-51.5c-2-11.6-4.3-24.7-11-43.5
						c-12-33.6-31.4-36-40.7-37.2c-0.7-0.1-4.7-0.1-5.4,0c-9.3,1.2-28.7,3.6-40.7,37.2c-6.7,18.8-9,31.9-11,43.5
						c-2.8,16.1-5.2,30-18.2,51.5c-19.5,31.9-15,77.1,9.8,98.8c19.7,17.2,51.6,20,61,20.5L294.9,498.2L294.9,498.2L294.9,498.2z"/>
				</g>
			</g>
			<g>
				<g>
					<path class="st9" d="M350,424.4c0,30.5-24.7,55.2-55.2,55.2s-55.2-24.7-55.2-55.2s24.7-55.2,55.2-55.2
						C325.3,369.2,350,393.9,350,424.4z"/>
					<g>
						<path class="st10" d="M294.9,483.6c-32.7,0-59.3-26.6-59.3-59.3s26.6-59.3,59.3-59.3s59.3,26.6,59.3,59.3
							C354.1,457,327.5,483.6,294.9,483.6z M294.9,373.3c-28.2,0-51.1,22.9-51.1,51.1s22.9,51.1,51.1,51.1s51.1-22.9,51.1-51.1
							C345.9,396.2,323,373.3,294.9,373.3z"/>
					</g>
				</g>
				<g class="st11">
					<path class="st7" d="M294.8,395.7c-0.6,6.6,4.2,12.4,10.7,13s12.3-4.2,12.9-10.8c0.6-6.6-4.2-12.4-10.7-13
						S295.4,389.1,294.8,395.7z"/>
					<path class="st7" d="M316.5,413c-0.4,4.2,2.7,8,6.9,8.3c4.2,0.4,7.9-2.7,8.3-6.9c0.4-4.2-2.7-8-6.9-8.3
						C320.6,405.7,316.9,408.8,316.5,413z"/>
				</g>
			</g>
		</g>
		<g>
			<g>
				<g>
					<path class="st4" d="M268.1,323.7c0,3.4-2.8,6.2-6.2,6.2c-3.4,0-6.2-2.8-6.2-6.2c0-3.4,2.8-6.2,6.2-6.2
						C265.3,317.4,268.1,320.2,268.1,323.7z"/>
					<path class="st7" d="M261.4,321.6c0,0.9-0.7,1.6-1.6,1.6s-1.6-0.7-1.6-1.6s0.7-1.6,1.6-1.6C260.6,320,261.4,320.7,261.4,321.6z
						"/>
				</g>
				<g>
					<path class="st4" d="M332.8,323.7c0,3.4-2.8,6.2-6.2,6.2c-3.4,0-6.2-2.8-6.2-6.2c0-3.4,2.8-6.2,6.2-6.2
						C330,317.4,332.8,320.2,332.8,323.7z"/>
					<path class="st7" d="M326.1,321.6c0,0.9-0.7,1.6-1.6,1.6s-1.6-0.7-1.6-1.6s0.7-1.6,1.6-1.6C325.4,320,326.1,320.7,326.1,321.6z
						"/>
				</g>
			</g>
			<g>
				<path class="st5" d="M271.4,341.4c0,3.2-3.8,5.7-8.5,5.7s-8.5-2.6-8.5-5.7c0-3.2,3.8-5.7,8.5-5.7
					C267.6,335.7,271.4,338.2,271.4,341.4z"/>
				<path class="st5" d="M335.3,341.4c0,3.2-3.8,5.7-8.5,5.7s-8.5-2.6-8.5-5.7c0-3.2,3.8-5.7,8.5-5.7S335.3,338.2,335.3,341.4z"/>
			</g>
			<g>
				<path class="st4" d="M301.9,328.9c-0.5,8.9-13.9,8.9-14.4,0c-0.1-1.7-2.8-1.7-2.7,0c0.7,12.3,19.1,12.3,19.8,0
					C304.7,327.2,302,327.2,301.9,328.9L301.9,328.9z"/>
			</g>
		</g>
		<g class="st6">
			<path class="st7" d="M292.6,264.1c-0.6,6.6,4.2,12.4,10.7,13s12.3-4.2,12.9-10.8c0.6-6.6-4.2-12.4-10.7-13
				S293.2,257.5,292.6,264.1z"/>
			<path class="st7" d="M314.3,281.5c-0.4,4.2,2.7,8,6.9,8.4c4.2,0.4,7.9-2.7,8.3-6.9c0.4-4.2-2.7-8-6.9-8.4
				C318.4,274.1,314.7,277.2,314.3,281.5z"/>
		</g>
	</g>
	<g>
		<g>
			<path class="st12" d="M192.4,426.6c0,42.3-43.1,76.5-96.2,76.5S0,468.8,0,426.6S43.1,350,96.2,350S192.4,384.3,192.4,426.6z"/>
			<path class="st8" d="M135.8,350c-19.2-11.2-31.6-3.7-31.6-3.7l-6.9-0.5h-6.6l-6.9,0.5c0,0-12.3-7.5-31.6,3.7
				c-19.1,11.2-32,3.3-32,3.3s7.1,19.2,25.5,20.1c18.4,0.8,26.8-7.1,26.8-7.1s-15,22.2-3.3,35.1c0,0,4.6-8.8,14.9-13
				c4.8-2,8.1-4.3,10.2-7.2c2,2.9,5.4,5.3,10.2,7.2c10.2,4.2,14.9,13,14.9,13c11.7-13-3.3-35.1-3.3-35.1s8.4,7.9,26.7,7.1
				c18.4-0.8,25.5-20.1,25.5-20.1S155.1,361.2,135.8,350z"/>
			<path class="st0" d="M92.7,361.8c0,0-19.5-31.9-16.4-37.2c3.1-5.3,15-7.5,19.5-2.2C100.2,327.7,103.2,369.7,92.7,361.8z"/>
		</g>
		<g>
			<g>
				<path class="st4" d="M60.2,423.9c-5.2-2.4-10.5-4.9-15.7-7.3c-2.5-1.2-4.7,2.6-2.2,3.7c3.9,1.8,7.8,3.6,11.7,5.4
					c-3.9,1.8-7.8,3.6-11.7,5.4c-2.5,1.2-0.3,4.9,2.2,3.8c5.2-2.4,10.5-4.9,15.7-7.3C61.6,426.9,61.6,424.5,60.2,423.9z"/>
				<g>
					<g>
						<g>
							<path class="st4" d="M151.3,425.7c0,4.7-3.8,8.5-8.5,8.5s-8.5-3.8-8.5-8.5s3.8-8.5,8.5-8.5
								C147.5,417.2,151.3,421,151.3,425.7z"/>
							<path class="st7" d="M142.1,422.9c0,1.2-1,2.2-2.1,2.2c-1.2,0-2.1-1-2.1-2.2s1-2.1,2.1-2.1S142.1,421.7,142.1,422.9z"/>
						</g>
					</g>
				</g>
				<g>
					<path class="st4" d="M103.8,432.8c-0.2,4.9-2.9,9.8-8.2,10.1c-5.3,0.3-8.1-5.7-8.2-10.1c-0.1-2.9-4.6-2.9-4.5,0
						c0.3,7.5,4.9,14.2,12.7,14.6c7.9,0.4,12.5-7.8,12.7-14.6C108.5,429.9,104,429.9,103.8,432.8L103.8,432.8z"/>
				</g>
			</g>
			<g>
				<path class="st5" d="M60.9,452c0,4.7-5.6,8.4-12.6,8.4c-6.9,0-12.6-3.8-12.6-8.4c0-4.7,5.6-8.4,12.6-8.4
					C55.3,443.6,60.9,447.3,60.9,452z"/>
				<path class="st5" d="M155.4,452c0,4.7-5.6,8.4-12.6,8.4c-6.9,0-12.6-3.8-12.6-8.4c0-4.7,5.6-8.4,12.6-8.4
					C149.8,443.6,155.4,447.3,155.4,452z"/>
			</g>
		</g>
		<g class="st6">
			<path class="st7" d="M135.9,388.9c0.2,6.6,5.7,11.9,12.2,11.7c6.6-0.2,11.8-5.7,11.6-12.3c-0.2-6.6-5.7-11.9-12.2-11.7
				C140.9,376.8,135.7,382.3,135.9,388.9z"/>
			<path class="st7" d="M159.6,403.6c0.1,4.3,3.6,7.6,7.8,7.5c4.2-0.1,7.6-3.6,7.4-7.9c-0.1-4.3-3.6-7.6-7.8-7.5
				S159.5,399.4,159.6,403.6z"/>
		</g>
	</g>
	<g>
		<path class="st13" d="M477.9,255.1c0,0-35.4-4.5-40.1,30.9c-4.7,35.4-4.7,70.7-42.4,110.8s-40.1,96.6,18.9,115.5
			c58.9,18.9,132-42.8,132-128.7S525,257.2,477.9,255.1z"/>
		<g>
			<path class="st0" d="M473.3,248c0,0-30,0-36.5,24.8s-17.6,26.8-17.6,26.8s27.9,9.1,40.7-13.7c0,0,1.1,23.8,29.1,28.6
				c0,0-1.3-15.1,7.8-29.3c0,0,21.2,26.3,49.4,14.5c0,0-10.9-9.8-14.8-23.5C527.5,262.3,511.8,244.7,473.3,248z"/>
			<path class="st0" d="M478.6,259.3c0,0-19.1-31.3-16.1-36.5s14.8-7.4,19.1-2.2S488.9,267.1,478.6,259.3z"/>
		</g>
		<g class="st6">
			<path class="st7" d="M493.7,332.5c-0.7,6.9,4.4,13,11.2,13.6s12.9-4.4,13.5-11.3s-4.4-13-11.2-13.6
				C500.4,320.6,494.3,325.6,493.7,332.5z"/>
			<path class="st7" d="M516.3,350.7c-0.4,4.4,2.8,8.3,7.2,8.7c4.4,0.4,8.3-2.8,8.7-7.3c0.4-4.4-2.8-8.3-7.2-8.7
				C520.7,343,516.8,346.3,516.3,350.7z"/>
		</g>
		<g>
			<g>
				<g>
					<g>
						<path class="st4" d="M411.5,419.3c0.4-8,12-8,12.5,0c0.1,2.3,3.7,2.3,3.5,0c-0.3-5.5-4.2-9.5-9.8-9.8
							c-5.5-0.3-9.5,4.7-9.8,9.8C407.8,421.5,411.3,421.5,411.5,419.3L411.5,419.3z"/>
					</g>
				</g>
				<g>
					<g>
						<path class="st4" d="M494.4,419.3c0.4-8,12-8,12.5,0c0.1,2.3,3.7,2.3,3.5,0c-0.3-5.5-4.2-9.5-9.8-9.8
							c-5.5-0.3-9.5,4.7-9.8,9.8C490.7,421.5,494.3,421.5,494.4,419.3L494.4,419.3z"/>
					</g>
				</g>
			</g>
			<g>
				<path class="st5" d="M430,433.5c0,4-4.9,7.3-10.9,7.3s-10.9-3.3-10.9-7.3s4.9-7.3,10.9-7.3C425.1,426.1,430,429.4,430,433.5z"/>
				<path class="st5" d="M511.8,433.5c0,4-4.9,7.3-10.9,7.3s-10.9-3.3-10.9-7.3s4.9-7.3,10.9-7.3
					C506.9,426.1,511.8,429.4,511.8,433.5z"/>
			</g>
			<g>
				<path class="st4" d="M469.1,417.5c-0.6,11.4-17.8,11.4-18.4,0c-0.1-2.2-3.6-2.2-3.5,0c0.9,15.8,24.5,15.8,25.4,0
					C472.7,415.3,469.2,415.3,469.1,417.5L469.1,417.5z"/>
			</g>
		</g>
	</g>
	<g>
		<g>
			<g>
				<path class="st8" d="M192.4,420.2c0,0-34.7-103.8-22.5-106.3C182.1,311.3,192.4,420.2,192.4,420.2z"/>
				<path class="st8" d="M190.8,420.2c0,0,34.7-103.8,22.5-106.3C201.1,311.3,190.8,420.2,190.8,420.2z"/>
			</g>
			<path class="st0" d="M191.4,418c0,0-12.5-108.7,0-108.7C203.9,309.4,191.4,418,191.4,418z"/>
		</g>
		<path class="st14" d="M127,465.5c0,28,28.8,50.8,64.4,50.8c35.5,0,64.4-22.7,64.4-50.8c0-20.7-15.8-38.5-38.4-46.4
			c0,0-21.9-10-26-29.6c-4.1,19.6-26,29.5-26,29.6C142.8,426.9,127,444.8,127,465.5z"/>
		<g class="st15">
			<path class="st16" d="M190.5,438.5c-0.7,0.2-1.2,0.5-1.7,0.7c-2,1.2-3.3,2.7-4.4,4.2c-2.2,3.1-3.5,6.5-4.4,9.9
				c-0.5,1.7-0.8,3.5-1,5.3l-0.3,2.7l-0.1,2.6c0,3.6,0.3,7.1,1.2,10.6c0.8,3.5,2,6.9,4.2,10c1.1,1.6,2.3,3.1,4.3,4.3
				c0.6,0.3,1,0.6,1.8,0.8c0.4,0.1,0.8,0.2,1.1,0.3l0,0v-2.2c-0.2-0.1-0.5-0.4-0.8-0.5c-1.2-0.9-2.1-2.3-2.9-3.8
				c-0.7-1.4-1.3-3-1.7-4.6c-0.5-1.6-0.8-3.2-1-4.9c-0.4-3.3-0.8-6.7-0.6-10.1l0.1-2.6l0.2-2.5c0.2-1.7,0.4-3.3,0.7-5
				c0.3-1.6,0.7-3.3,1.2-4.8c0.5-1.6,1-3.1,1.8-4.5s1.7-2.8,2.9-3.7c0.3-0.2,0.5-0.4,0.8-0.5V438c-0.1,0-0.1,0-0.2,0
				C191.2,438.3,190.8,438.4,190.5,438.5z"/>
			<path class="st16" d="M186,498.6c-3.7-0.7-7.4-1.8-10.6-3.5c-3.3-1.7-6.3-3.6-8.8-6c-2.5-2.3-4.8-4.9-6.4-7.7
				c-3.5-5.5-5-11.7-5-17.8l0.1-2.3l0.1-1.2c0-0.4,0.1-0.7,0.2-1.1l0.4-2.2c0.2-0.7,0.4-1.5,0.6-2.2c0.4-1.5,1.1-2.9,1.7-4.4
				c0.8-1.4,1.4-2.9,2.4-4.2c1.7-2.7,4-5.2,6.6-7.5c2.5-2.3,5.6-4.2,8.9-5.8c3.3-1.6,7-2.7,10.8-3.3c1.6-0.3,3.3-0.4,5-0.5v-2
				c-6,0-12.3,1.1-17.8,3.4c-7.7,3.1-13.9,8.2-18,14.1c-1.1,1.4-1.9,3-2.8,4.5c-0.6,1.6-1.5,3.1-1.9,4.8c-0.2,0.8-0.5,1.6-0.7,2.4
				l-0.5,2.5c-0.1,0.4-0.2,0.8-0.2,1.3l-0.1,1.2l-0.2,2.5c0.1,3.3,0.4,6.7,1.5,9.9c0.4,1.6,1.2,3.2,1.8,4.8c0.9,1.5,1.6,3.1,2.7,4.6
				c3.9,6,10.1,11.2,17.7,14.5c3.8,1.7,7.9,2.8,12.1,3.4c1.1,0.1,2.2,0.3,3.2,0.4c0.8,0,1.6,0.1,2.4,0.1v-2
				c-0.7-0.1-1.5-0.1-2.2-0.2C187.8,499,186.9,498.8,186,498.6z"/>
			<path class="st16" d="M169.9,500.8c-9.1-3.4-17-8.8-22.5-15.4l-1.9-2.5c-0.6-0.9-1.1-1.8-1.6-2.6c-0.3-0.4-0.6-0.9-0.8-1.3
				l-0.6-1.4c-0.4-0.9-0.9-1.8-1.2-2.7l-0.9-2.8c-0.3-0.9-0.4-1.9-0.6-2.8l-0.3-1.4c-0.1-0.5-0.1-1-0.1-1.4l-0.2-2.8l0.2-3
				c0.1-0.5,0-1,0.1-1.5l0.3-1.4c0.2-0.9,0.3-1.9,0.7-2.8l1-2.8c0.3-0.9,0.9-1.8,1.3-2.7l0.7-1.3c0.2-0.4,0.6-0.9,0.8-1.3
				c0.6-0.9,1.1-1.7,1.7-2.6l2-2.5c5.6-6.4,13.6-11.6,22.8-14.8c4.6-1.6,9.4-2.7,14.3-3.2c2.3-0.3,4.5-0.4,6.8-0.5v-2
				c-2.4,0-4.8,0-7.3,0.3c-5.2,0.4-10.5,1.4-15.5,2.9c-1.2,0.4-2.5,0.8-3.8,1.2c-1.2,0.5-2.4,1-3.6,1.5s-2.3,1.1-3.5,1.7
				c-1.1,0.6-2.3,1.1-3.3,1.8c-1.1,0.7-2.1,1.3-3.2,2c-1,0.7-1.9,1.5-2.9,2.2s-1.9,1.6-2.7,2.4c-0.8,0.8-1.8,1.6-2.5,2.5
				c-3.3,3.4-5.5,7.3-7.3,11.2l-1.1,3c-0.4,1-0.5,2.1-0.8,3.1l-0.3,1.6c-0.1,0.5-0.1,1-0.2,1.5l-0.3,3l0.2,3.2c0.1,0.5,0,1,0.1,1.6
				l0.3,1.6c0.2,1,0.3,2.1,0.7,3.1l1,3.1c1.7,4,3.9,7.9,7,11.4c0.7,0.9,1.6,1.7,2.5,2.6c0.8,0.8,1.7,1.7,2.7,2.4
				c1,0.8,1.9,1.6,2.8,2.3c1,0.7,2.1,1.4,3.1,2.1s2.2,1.3,3.3,1.9c1.1,0.6,2.2,1.2,3.4,1.7c1.2,0.5,2.4,1.1,3.6,1.6
				c1.2,0.4,2.5,0.9,3.7,1.3c5,1.6,10.2,2.8,15.5,3.3c2.5,0.4,4.9,0.4,7.2,0.4v-2c-2.3-0.1-4.7-0.2-6.8-0.6
				C179.3,503.7,174.4,502.4,169.9,500.8z"/>
			<path class="st16" d="M194,489c2-1.2,3.3-2.7,4.4-4.2c2.2-3.1,3.5-6.5,4.4-9.9c1-3.4,1.3-7,1.4-10.6l-0.1-2.6l-0.2-2.7
				c-0.2-1.8-0.4-3.5-0.9-5.3c-0.8-3.5-2-6.9-4.2-10c-1.1-1.6-2.3-3.1-4.3-4.3c-0.6-0.3-1-0.6-1.7-0.8c-0.3-0.1-0.7-0.2-1-0.3
				c-0.1,0-0.1,0-0.2,0v2.2c0.3,0.1,0.5,0.4,0.8,0.5c1.2,0.9,2.1,2.3,2.9,3.7c0.8,1.4,1.3,3,1.7,4.6c0.5,1.6,0.8,3.2,1.1,4.9
				c0.2,1.7,0.4,3.3,0.5,5l0.1,2.5v2.6c0,3.4-0.4,6.8-0.9,10.1c-0.3,1.6-0.7,3.3-1.2,4.8c-0.5,1.6-1,3.1-1.8,4.5s-1.7,2.8-3,3.7
				c-0.3,0.1-0.6,0.4-0.8,0.5v2.2l0,0c0.4-0.1,0.7-0.2,1.1-0.3C193.1,489.5,193.4,489.2,194,489z"/>
			<path class="st16" d="M192,497.4l0.7-0.1l1.3-0.2l0.7-0.1l0.6-0.2c3.2-1,5.8-2.6,7.9-4.5c4.2-3.8,6.9-8.4,8.7-13.1
				c1.8-4.8,2.6-9.7,2.7-14.7c0-1.3-0.1-2.4-0.1-3.7c-0.1-1.3-0.2-2.5-0.4-3.8c-0.4-2.5-0.9-4.9-1.8-7.3c-1.6-4.8-4.2-9.4-8.4-13.3
				c-2-1.9-4.7-3.7-7.8-4.7c-1.3-0.4-2.8-0.7-4.2-0.8c-1.4,0.1-2.9,0.3-4.2,0.7c-3.2,1-5.8,2.6-7.9,4.5c-4.2,3.8-6.9,8.4-8.7,13.1
				c-1,2.4-1.5,4.8-2,7.3c-0.3,1.2-0.3,2.5-0.5,3.8c-0.1,1.3-0.2,2.4-0.2,3.7c0,5,0.7,10,2.4,14.8c1.6,4.8,4.3,9.4,8.3,13.3
				c2,1.9,4.7,3.7,7.8,4.7l0.6,0.2l0.7,0.1l1.3,0.3l0.7,0.1h0.6h0.4h0.4L192,497.4z M191,495.4h-0.1l-0.6-0.1l-0.4-0.1l-0.9-0.3
				l-0.4-0.1l-0.4-0.2c-2.4-1-4.4-2.5-6-4.3c-3.3-3.6-5.3-8-6.6-12.5c-1.2-4.5-1.9-9.2-1.8-13.9c0.1-1.1,0.1-2.4,0.2-3.6
				c0.2-1.2,0.2-2.3,0.4-3.5c0.2-1.2,0.4-2.3,0.7-3.5l0.4-1.7l0.5-1.7c0.7-2.3,1.6-4.4,2.7-6.5s2.5-4,4.2-5.8s3.7-3.2,6.1-4.1
				c0.9-0.3,1.9-0.5,2.8-0.7c1,0.1,1.9,0.4,2.8,0.7c2.4,1,4.4,2.5,6,4.3s3,3.8,4,5.9c1.1,2.1,2,4.3,2.6,6.6l0.5,1.7l0.3,1.7
				c0.3,1.1,0.4,2.3,0.6,3.5s0.2,2.3,0.3,3.5c0.1,1.2,0,2.5,0.1,3.6c0,4.7-0.8,9.4-2.1,13.9c-1.4,4.5-3.6,8.8-6.9,12.3
				c-1.7,1.8-3.7,3.2-6.1,4.1l-0.4,0.2l-0.4,0.1l-0.9,0.2l-0.4,0.1l-0.6,0.1L191,495.4z"/>
			<path class="st16" d="M207.5,433.1c3.3,1.7,6.3,3.6,8.8,6c2.5,2.3,4.8,4.9,6.4,7.7c0.9,1.3,1.5,2.8,2.3,4.2
				c0.5,1.5,1.2,2.9,1.6,4.4c0.2,0.7,0.4,1.5,0.6,2.2l0.3,2.2c0,0.4,0.1,0.7,0.2,1.1v1.2l0.1,2.3c-0.1,6.1-1.8,12.2-5.4,17.6
				c-1.7,2.7-4,5.2-6.6,7.5c-2.5,2.3-5.6,4.2-8.9,5.8c-3.3,1.6-7,2.7-10.7,3.3c-0.9,0.1-1.8,0.3-2.8,0.4c-0.7,0-1.5,0.1-2.2,0.1v2
				c0.8,0,1.6,0,2.4,0c1,0,2.1-0.2,3.2-0.3c4.3-0.5,8.4-1.5,12.2-3.1c7.7-3.1,13.9-8.2,18-14.1c1.1-1.4,1.9-3,2.8-4.5
				c0.6-1.6,1.5-3.1,1.9-4.8c1.1-3.2,1.5-6.5,1.7-9.9l-0.1-2.5l-0.1-1.2c0-0.4-0.1-0.8-0.2-1.3l-0.4-2.5c-0.2-0.8-0.4-1.6-0.7-2.5
				c-0.4-1.6-1.2-3.2-1.8-4.8c-0.9-1.5-1.6-3.1-2.7-4.6c-3.9-6-10-11.2-17.7-14.5c-5.4-2.5-11.7-3.7-17.7-3.9v2
				c1.7,0.1,3.3,0.3,4.9,0.6C200.5,430.2,204.2,431.4,207.5,433.1z"/>
			<path class="st16" d="M248.9,461.7c-0.1-0.5,0-1-0.1-1.5l-0.3-1.6c-0.2-1.1-0.3-2.1-0.7-3.2l-1-3.1c-1.7-4-3.9-7.9-7-11.4
				c-0.7-0.9-1.6-1.7-2.5-2.6c-0.8-0.8-1.7-1.7-2.7-2.4c-0.9-0.8-1.9-1.6-2.8-2.3c-1-0.7-2.1-1.4-3.1-2.1s-2.2-1.3-3.3-1.9
				c-1.1-0.6-2.2-1.2-3.4-1.7c-1.2-0.5-2.4-1.1-3.6-1.6c-1.2-0.4-2.5-0.9-3.7-1.3c-5-1.6-10.2-2.8-15.4-3.3
				c-2.4-0.3-4.9-0.4-7.3-0.5v2c2.3,0.1,4.5,0.2,6.8,0.6c4.9,0.6,9.7,1.9,14.3,3.6c9.1,3.4,17,8.8,22.5,15.4l1.9,2.5
				c0.6,0.9,1.1,1.8,1.6,2.6c0.3,0.4,0.6,0.9,0.8,1.3l0.6,1.4c0.4,0.9,0.9,1.8,1.2,2.7l0.9,2.8c0.3,0.9,0.4,1.9,0.6,2.8l0.3,1.4
				c0.1,0.5,0.1,1,0.1,1.5l0.2,3l-0.2,2.8c-0.1,0.5,0,1-0.1,1.4l-0.3,1.4c-0.2,0.9-0.3,1.9-0.7,2.8l-1,2.8c-0.3,0.9-0.9,1.8-1.3,2.7
				l-0.7,1.3c-0.2,0.4-0.6,0.9-0.8,1.3c-0.6,0.9-1.1,1.7-1.7,2.6l-2,2.5c-5.6,6.4-13.6,11.6-22.8,14.8c-4.6,1.6-9.5,2.7-14.3,3.2
				c-2.2,0.3-4.5,0.4-6.8,0.5v2c2.4,0,4.7,0,7.2-0.3c5.3-0.4,10.5-1.4,15.6-3c1.3-0.4,2.5-0.8,3.8-1.2c1.2-0.5,2.4-1,3.6-1.5
				s2.3-1.1,3.5-1.7c1.1-0.6,2.3-1.1,3.3-1.8c1.1-0.7,2.1-1.3,3.2-2c1-0.7,1.9-1.5,2.9-2.2s1.9-1.5,2.7-2.4c0.8-0.8,1.8-1.6,2.5-2.5
				c3.2-3.4,5.6-7.3,7.3-11.2l1.1-3c0.4-1,0.5-2.1,0.8-3.1l0.3-1.5c0.1-0.5,0.1-1,0.2-1.6l0.3-3.2L248.9,461.7z"/>
		</g>
		<g>
			<g>
				<g>
					<g>
						<path class="st4" d="M155.7,468.9c0.3-6.1,9.1-6.1,9.4,0c0.1,1.7,2.8,1.7,2.7,0c-0.2-4.2-3.2-7.2-7.4-7.4
							c-4.2-0.2-7.2,3.6-7.4,7.4C153,470.7,155.6,470.7,155.7,468.9L155.7,468.9z"/>
					</g>
				</g>
				<g>
					<g>
						<path class="st4" d="M218.5,468.9c0.3-6.1,9.1-6.1,9.4,0c0.1,1.7,2.8,1.7,2.7,0c-0.2-4.2-3.2-7.2-7.4-7.4
							c-4.2-0.2-7.2,3.6-7.4,7.4C215.8,470.7,218.4,470.7,218.5,468.9L218.5,468.9z"/>
					</g>
				</g>
			</g>
			<g>
				<path class="st5" d="M169.7,479.7c0,3.1-3.7,5.5-8.3,5.5c-4.6,0-8.3-2.5-8.3-5.5c0-3.1,3.7-5.5,8.3-5.5S169.7,476.6,169.7,479.7
					z"/>
				<path class="st5" d="M231.7,479.7c0,3.1-3.7,5.5-8.3,5.5c-4.6,0-8.3-2.5-8.3-5.5c0-3.1,3.7-5.5,8.3-5.5S231.7,476.6,231.7,479.7
					z"/>
			</g>
			<g>
				<path class="st4" d="M185.4,475.3c0.5-8.6,13.5-8.6,14,0c0.1,1.7,2.7,1.7,2.6,0c-0.7-12-18.5-12-19.2,0
					C182.7,477,185.3,477,185.4,475.3L185.4,475.3z"/>
			</g>
		</g>
		<g class="st6">
			<path class="st7" d="M193.1,436.6c1.5,4.8,6.5,7.5,11.3,6.1c4.8-1.5,7.5-6.6,6-11.4s-6.5-7.5-11.3-6.1
				C194.3,426.7,191.6,431.7,193.1,436.6z"/>
			<path class="st7" d="M213.4,442.5c0.9,3.1,4.2,4.8,7.3,3.9c3.1-0.9,4.8-4.2,3.8-7.3c-0.9-3.1-4.2-4.8-7.3-3.9
				C214.2,436.1,212.5,439.4,213.4,442.5z"/>
		</g>
	</g>
</g>
</svg>
