<?xml version="1.0" encoding="utf-8"?>
<!-- Generator: Adobe Illustrator 22.1.0, SVG Export Plug-In . SVG Version: 6.00 Build 0)  -->
<svg version="1.1" id="Layer_1" xmlns="http://www.w3.org/2000/svg" xmlns:xlink="http://www.w3.org/1999/xlink" x="0px" y="0px"
	 viewBox="0 0 375 375" style="enable-background:new 0 0 375 375;" xml:space="preserve">
<style type="text/css">
	.st0{fill:#A7C957;}
	.st1{fill:none;stroke:#FFFFFF;stroke-width:2.8346;stroke-miterlimit:10;}
	.st2{fill:#FFFFFF;}
</style>
<path class="st0" d="M187.6,348.7c-4.7,0-9.4-1.1-13.8-3.2l-119-56.6c-11-5.3-18.3-16.7-18.3-28.9l-0.2-145
	c0-12.4,7.1-23.8,18.3-29.1l119.3-56.5c8.8-4.1,18.8-4.1,27.5,0L320.7,86c11.2,5.3,18.3,16.7,18.3,28.9V260
	c0,12.3-7.3,23.8-18.3,29.1l-119.3,56.6C197,347.7,192.3,348.7,187.6,348.7z"/>
<path class="st1" d="M187.6,341.6c-3.6,0-7.3-0.8-10.7-2.5l-119-56.6c-8.7-4.2-14.3-13-14.3-22.5l-0.2-145c0-9.7,5.6-18.6,14.2-22.7
	l119.3-56.5c3.4-1.6,7-2.4,10.8-2.4c3.7,0,7.3,0.8,10.7,2.4l119.3,56.6c8.7,4.1,14.3,12.9,14.3,22.5V260c0,9.6-5.6,18.5-14.3,22.7
	l-119.3,56.6C195,340.8,191.4,341.6,187.6,341.6z"/>
<path class="st2" d="M244.5,150c2.5,0,5.1,0,7.6,0c3.6,0,3.6-5.6,0-5.6c-2.5,0-5.1,0-7.6,0C240.9,144.4,240.9,150,244.5,150"/>
<g>
	<path class="st2" d="M252.5,213.5c-9.8,1.2-19.7,2.4-29.6,3.6c0-10.2,0-20.3,0-30.5c9.2,0,18.5,0,27.7,0c2.6,0,5.2,0,7.8,0
		C256.4,195.7,254.4,204.6,252.5,213.5z M141.8,227.1c-1.7-13.5-3.4-27-5.1-40.4c7.3,0,14.6,0,21.9,0c3.6,0,3.6-5.6,0-5.6
		c-7.5,0-15.1,0-22.6,0c-1.3-10.4-2.6-20.7-3.9-31.1c0,0,0,0,0-0.1c14.1,0,28.2,0,42.2,0c0,10.4,0,20.8,0,31.2c-2.4,0-4.9,0-7.3,0
		c-3.6,0-3.6,5.6,0,5.6c2.4,0,4.9,0,7.3,0c0,12.1,0,24.3,0,36.4c-0.3,0-0.7,0.1-1,0.1C162.8,224.6,152.3,225.9,141.8,227.1z
		 M217.3,186.7c0,10.4,0,20.8,0,31.2c-12.5,1.5-25,3.1-37.5,4.6c0-11.9,0-23.8,0-35.7C192.4,186.7,204.8,186.7,217.3,186.7z
		 M217.3,150c0,10.4,0,20.8,0,31.2c-12.5,0-25,0-37.5,0c0-10.4,0-20.8,0-31.2c10.8,0,21.5,0,32.3,0C213.9,150,215.6,150,217.3,150z
		 M112,127.7c-2.8,0-5.5,0-8.3,0c-2.5,0-5.1,0-7.6,0c-2.6,0-3.6-1.4-3.6-3.9c0-2.7,2.6-2.6,4.5-2.6c2.8,0,5.5,0,8.3,0
		c2.5,0,5.1,0,7.6,0c2.6,0,3.6,1.4,3.6,4C116.3,127.8,113.9,127.7,112,127.7z M269.9,144.4c-3.2,0-6.3,0-9.5,0c-3.6,0-3.6,5.6,0,5.6
		c2,0,4,0,6,0c-2.3,10.4-4.6,20.8-6.8,31.2c-12.2,0-24.4,0-36.7,0c0-10.4,0-20.8,0-31.2c4.1,0,8.2,0,12.3,0c3.6,0,3.6-5.6,0-5.6
		c-27.8,0-55.5,0-83.3,0c-7,0-14,0-21,0c-0.8-6.4-1.7-12.9-2.5-19.3c-0.2-1.5-1.1-2.8-2.8-2.8c-1.3,0-2.6,0-3.9,0
		c-0.8-3.8-3.5-6.4-7.9-6.7c-2.6-0.2-5.3,0-8,0c-3.4,0-6.8,0-10.2,0c-4.9,0-8.4,3.4-8.7,8.2c-0.3,5.2,3,9.2,8.2,9.5
		c2.6,0.2,5.3,0,8,0c3.4,0,6.8,0,10.2,0c3.9,0,6.9-2.1,8.1-5.4c0.6,0,1.2,0,1.8,0c3.4,25.8,6.7,51.6,10.1,77.4
		c1.8,13.5,3.5,27,5.3,40.4c0.2,1.5,1.1,2.8,2.8,2.8c28,0,55.9,0,83.9,0c4.8,0,9.7,0,14.5,0c3.6,0,3.6-5.6,0-5.6
		c-28,0-55.9,0-83.9,0c-4,0-8.1,0-12.1,0c-0.4-3.4-0.9-6.8-1.3-10.3c26.1-3.2,52.2-6.4,78.4-9.6c11.3-1.4,22.6-2.8,33.9-4.2
		c1.2-0.1,2.4-0.7,2.7-2.1c5-23,10.1-45.9,15.1-68.9C272.9,146.2,271.8,144.4,269.9,144.4"/>
</g>
<g>
	<path class="st2" d="M148.2,263.7c-0.3-7,10.5-6.9,10.8,0C158.7,270.6,148.5,270.6,148.2,263.7z M164.5,262.9
		c-0.6-5.7-5-9.9-10.9-10.2c-6.2-0.3-10.7,5.2-11,11c-0.3,6.1,5.2,10.7,11,11c5.9,0.3,10.3-4.8,10.9-10.2c0.1-0.2,0.1-0.5,0.1-0.8
		C164.6,263.4,164.6,263.1,164.5,262.9"/>
</g>
<g>
	<path class="st2" d="M221.2,263.7c-0.3-7,10.5-6.9,10.8,0C231.7,270.6,221.5,270.6,221.2,263.7z M237.5,262.9
		c-0.6-5.7-5-9.9-10.9-10.2c-6.2-0.3-10.7,5.2-11,11c-0.3,6.1,5.2,10.7,11,11c5.9,0.3,10.3-4.8,10.9-10.2c0.1-0.2,0.1-0.5,0.1-0.8
		C237.6,263.4,237.5,263.1,237.5,262.9"/>
</g>
</svg>
