<?xml version="1.0" encoding="utf-8"?>
<!-- Generator: Adobe Illustrator 22.1.0, SVG Export Plug-In . SVG Version: 6.00 Build 0)  -->
<svg version="1.1" id="Layer_1" xmlns="http://www.w3.org/2000/svg" xmlns:xlink="http://www.w3.org/1999/xlink" x="0px" y="0px"
	 viewBox="0 0 900 600" style="enable-background:new 0 0 900 600;" xml:space="preserve">
<style type="text/css">
	.st0{fill:#95C93D;}
	.st1{fill:#F9A61F;}
	.st2{opacity:0.5;clip-path:url(#SVGID_2_);}
	.st3{fill:#E99123;}
	.st4{fill:#391A0F;}
	.st5{fill:#ECBFDA;}
	.st6{opacity:0.3;}
	.st7{fill:#FFFFFF;}
	.st8{fill:#57B247;}
	.st9{fill:#CE5F4D;}
	.st10{fill:#C24739;}
	.st11{opacity:0.1;}
	.st12{fill:#E63938;}
	.st13{fill:#6D5CA8;}
	.st14{fill:#DFBED3;}
	.st15{opacity:0.4;}
	.st16{fill:#D7A6C7;}
</style>
<g>
	<g>
		<g>
			<path class="st0" d="M604,41.7c-11.5,0-21.1,55.6-25.6,48.3c-4.5-7.3,4.5-41.9,9.3-64.7c4.8-22.8-19.2-18.2-19.2-18.2
				s-24-4.6-19.2,18.2C554,48.1,563,82.7,558.5,90c-4.5,7.3-14.1-48.3-25.6-48.3c-11.5,0-19.2,12.8-9.6,26.4
				c9.6,13.7,37.5,41,36.5,81.1h8.6h8.6c-1-40.1,26.9-67.4,36.5-81.1C623.2,54.5,615.5,41.7,604,41.7z"/>
			<g>
				<path class="st1" d="M626.1,168.1c-15.4-31.2-57.6-28.9-57.6-28.9l0,0v0c0,0-42.3-2.3-57.6,28.9
					c-15.4,31.2,9.6,262.6,57.6,271.7v0l0,0C616.5,430.6,641.4,199.3,626.1,168.1z"/>
				<g>
					<defs>
						<path id="SVGID_1_" d="M626.1,168.1c-15.4-31.2-57.6-28.9-57.6-28.9l0,0v0c0,0-42.3-2.3-57.6,28.9
							c-15.4,31.2,9.6,262.6,57.6,271.7v0l0,0C616.5,430.6,641.4,199.3,626.1,168.1z"/>
					</defs>
					<clipPath id="SVGID_2_">
						<use xlink:href="#SVGID_1_"  style="overflow:visible;"/>
					</clipPath>
					<g class="st2">
						<g>
							<path class="st3" d="M485.7,201.9c24.7-13.3,54.2-22.4,82.7-21.2c7,0.3,6.9-9.9,0-10.2c-30.4-1.3-61.9,8.4-88.2,22.6
								C474.2,196.3,479.6,205.2,485.7,201.9L485.7,201.9z"/>
						</g>
						<g>
							<path class="st3" d="M656.4,224.2c-24.7-13.3-54.2-22.4-82.7-21.2c-7,0.3-6.9-9.9,0-10.2c30.4-1.3,61.9,8.4,88.2,22.6
								C667.9,218.6,662.5,227.5,656.4,224.2L656.4,224.2z"/>
						</g>
						<g>
							<path class="st3" d="M661.6,252.1c-24.7-13.3-54.2-22.4-82.7-21.2c-7,0.3-6.9-9.9,0-10.2c30.4-1.3,61.9,8.4,88.2,22.6
								C673.1,246.5,667.7,255.4,661.6,252.1L661.6,252.1z"/>
						</g>
						<g>
							<path class="st3" d="M466.4,256.5c24.7-13.3,54.2-22.4,82.7-21.2c7,0.3,6.9-9.9,0-10.2c-30.4-1.3-61.9,8.4-88.2,22.6
								C454.9,250.9,460.3,259.7,466.4,256.5L466.4,256.5z"/>
						</g>
						<g>
							<path class="st3" d="M637.1,290.9c-24.7-13.3-54.2-22.4-82.7-21.2c-7,0.3-6.9-9.9,0-10.2c30.4-1.3,61.9,8.4,88.2,22.6
								C648.7,285.3,643.2,294.2,637.1,290.9L637.1,290.9z"/>
						</g>
						<g>
							<path class="st3" d="M642.4,330.2c-24.7-13.3-54.2-22.4-82.7-21.2c-7,0.3-6.9-9.9,0-10.2c30.4-1.3,61.9,8.4,88.2,22.6
								C653.9,324.6,648.4,333.5,642.4,330.2L642.4,330.2z"/>
						</g>
						<g>
							<path class="st3" d="M485.7,351c24.7-13.3,54.2-22.4,82.7-21.2c7,0.3,6.9-9.9,0-10.2c-30.4-1.3-61.9,8.4-88.2,22.6
								C474.2,345.4,479.6,354.3,485.7,351L485.7,351z"/>
						</g>
						<g>
							<path class="st3" d="M490.5,398.9c24.7-13.3,54.2-22.4,82.7-21.2c7,0.3,6.9-9.9,0-10.2c-30.4-1.3-61.9,8.4-88.2,22.6
								C479,393.3,484.4,402.2,490.5,398.9L490.5,398.9z"/>
						</g>
					</g>
				</g>
			</g>
		</g>
		<g>
			<g>
				<g>
					<g>
						<path class="st4" d="M519,258.2c0.4-7.8,12.3-7.8,12.7,0c0.1,2.2,3.7,2.2,3.6,0c-0.3-5.3-4.3-9.2-10-9.4
							c-5.6-0.3-9.7,4.5-9.9,9.4C515.3,260.4,518.9,260.4,519,258.2L519,258.2z"/>
					</g>
				</g>
				<g>
					<g>
						<path class="st4" d="M603.5,258.2c0.4-7.8,12.2-7.8,12.7,0c0.1,2.2,3.7,2.2,3.6,0c-0.3-5.3-4.3-9.2-9.9-9.4
							c-5.6-0.3-9.7,4.5-9.9,9.4C599.8,260.4,603.4,260.4,603.5,258.2L603.5,258.2z"/>
					</g>
				</g>
			</g>
			<g>
				<path class="st5" d="M537.8,271.9c0,3.9-5,7.1-11.1,7.1c-6.1,0-11.1-3.2-11.1-7.1c0-3.9,5-7.1,11.1-7.1
					C532.9,264.8,537.8,268,537.8,271.9z"/>
				<path class="st5" d="M621.3,271.9c0,3.9-5,7.1-11.1,7.1c-6.1,0-11.1-3.2-11.1-7.1c0-3.9,5-7.1,11.1-7.1
					C616.3,264.8,621.3,268,621.3,271.9z"/>
			</g>
			<g>
				<path class="st4" d="M577.7,256.5c-0.7,11-18.1,11-18.8,0c-0.1-2.1-3.7-2.2-3.5,0c0.9,15.3,24.9,15.3,25.8,0
					C581.3,254.3,577.8,254.3,577.7,256.5L577.7,256.5z"/>
			</g>
		</g>
	</g>
	<g class="st6">
		<path class="st7" d="M568.4,167.2c-0.8,8.2,5.4,15.4,14,16.1c8.5,0.8,16.1-5.2,16.9-13.4c0.8-8.2-5.4-15.4-14-16.1
			C576.7,153.1,569.2,159.1,568.4,167.2z"/>
		<path class="st7" d="M596.6,188.7c-0.5,5.2,3.5,9.8,9,10.3c5.5,0.5,10.3-3.3,10.8-8.6c0.5-5.2-3.5-9.8-9-10.3
			C602,179.6,597.2,183.5,596.6,188.7z"/>
	</g>
</g>
<g>
	<g>
		<g>
			<path class="st0" d="M552,382.7c-21.7-35.6-12.5-48.5-28.7-94c-14.1-39.4-38.7-39.8-47.1-41.1l-0.1-0.3c0,0-0.5,0-1.4,0.1
				c-0.9-0.1-1.4-0.1-1.4-0.1l-0.1,0.3c-8.4,1.2-33.1,1.6-47.1,41.1c-16.2,45.5-7,58.4-28.7,94c-21.7,35.6-15,83.2,10.8,105.8
				c20.7,18.1,52.8,21.3,64.3,21.9l0,0.1c0,0,0.8,0,2.1,0c1.4,0,2.1,0,2.1,0l0-0.1c11.5-0.6,43.7-3.8,64.3-21.9
				C567,465.9,573.7,418.3,552,382.7z"/>
			<g>
				<path class="st8" d="M476.7,516c-0.3,0-1,0-2,0c-1.1,0-1.8,0-2,0h-4.5l-0.1-0.4c-15-1.2-43.8-5.7-63.5-22.9
					c-29-25.4-34.4-76-11.9-112.8c12-19.6,14.1-32,16.8-47.6c2.1-12,4.4-25.6,11.4-45.3c13.5-37.8,36.4-42.7,47.9-44.2
					c0,0,5.1-0.3,6-0.2c0.9-0.1,5.9,0.2,5.9,0.2c11.4,1.5,34.4,6.4,47.9,44.2c7,19.7,9.4,33.3,11.4,45.3c2.7,15.6,4.8,28,16.8,47.6
					c22.5,36.8,17.1,87.4-11.9,112.8c-19.7,17.2-48.4,21.7-63.4,22.9l-0.1,0.3L476.7,516z M474.7,504.9l0.2,0c0.2,0,0.3,0,0.5,0
					l1.2-0.1c9.3-0.5,41.3-3.3,61-20.5c24.7-21.6,29.2-66.9,9.8-98.8c-13.1-21.4-15.5-35.3-18.2-51.5c-2-11.6-4.3-24.7-11-43.5
					c-12-33.6-31.4-36-40.7-37.2c-0.7-0.1-4.7-0.1-5.4,0c-9.3,1.2-28.7,3.6-40.7,37.2c-6.7,18.8-9,31.9-11,43.5
					c-2.8,16.1-5.2,30-18.2,51.5c-19.5,31.9-15,77.1,9.8,98.8c19.7,17.2,51.6,20,61,20.5l1.7,0.1c0,0,0,0,0,0L474.7,504.9z"/>
			</g>
		</g>
		<g>
			<g>
				<path class="st9" d="M529.8,431.1c0,30.5-24.7,55.2-55.2,55.2c-30.5,0-55.2-24.7-55.2-55.2c0-30.5,24.7-55.2,55.2-55.2
					C505.1,375.9,529.8,400.6,529.8,431.1z"/>
				<g>
					<path class="st10" d="M474.7,490.3c-32.7,0-59.3-26.6-59.3-59.3c0-32.7,26.6-59.3,59.3-59.3s59.3,26.6,59.3,59.3
						C533.9,463.7,507.3,490.3,474.7,490.3z M474.7,380c-28.2,0-51.1,22.9-51.1,51.1c0,28.2,22.9,51.1,51.1,51.1
						c28.2,0,51.1-22.9,51.1-51.1C525.7,402.9,502.8,380,474.7,380z"/>
				</g>
			</g>
			<g class="st11">
				<path class="st7" d="M474.6,402.4c-0.6,6.6,4.2,12.4,10.7,13c6.5,0.6,12.3-4.2,12.9-10.8c0.6-6.6-4.2-12.4-10.7-13
					C481,391,475.2,395.8,474.6,402.4z"/>
				<path class="st7" d="M496.3,419.7c-0.4,4.2,2.7,8,6.9,8.3c4.2,0.4,7.9-2.7,8.3-6.9c0.4-4.2-2.7-8-6.9-8.3
					C500.4,412.4,496.7,415.5,496.3,419.7z"/>
			</g>
		</g>
	</g>
	<g>
		<g>
			<g>
				<path class="st4" d="M447.9,330.4c0,3.4-2.8,6.2-6.2,6.2c-3.4,0-6.2-2.8-6.2-6.2c0-3.4,2.8-6.2,6.2-6.2
					C445.1,324.1,447.9,326.9,447.9,330.4z"/>
				<path class="st7" d="M441.2,328.3c0,0.9-0.7,1.6-1.6,1.6c-0.9,0-1.6-0.7-1.6-1.6c0-0.9,0.7-1.6,1.6-1.6
					C440.4,326.7,441.2,327.4,441.2,328.3z"/>
			</g>
			<g>
				<path class="st4" d="M512.6,330.4c0,3.4-2.8,6.2-6.2,6.2c-3.4,0-6.2-2.8-6.2-6.2c0-3.4,2.8-6.2,6.2-6.2
					C509.8,324.1,512.6,326.9,512.6,330.4z"/>
				<path class="st7" d="M505.9,328.3c0,0.9-0.7,1.6-1.6,1.6c-0.9,0-1.6-0.7-1.6-1.6c0-0.9,0.7-1.6,1.6-1.6
					C505.2,326.7,505.9,327.4,505.9,328.3z"/>
			</g>
		</g>
		<g>
			<path class="st5" d="M451.2,348.1c0,3.2-3.8,5.7-8.5,5.7c-4.7,0-8.5-2.6-8.5-5.7c0-3.2,3.8-5.7,8.5-5.7
				C447.4,342.4,451.2,344.9,451.2,348.1z"/>
			<path class="st5" d="M515.1,348.1c0,3.2-3.8,5.7-8.5,5.7c-4.7,0-8.5-2.6-8.5-5.7c0-3.2,3.8-5.7,8.5-5.7
				C511.3,342.4,515.1,344.9,515.1,348.1z"/>
		</g>
		<g>
			<path class="st4" d="M481.7,335.6c-0.5,8.9-13.9,8.9-14.4,0c-0.1-1.7-2.8-1.7-2.7,0c0.7,12.3,19.1,12.3,19.8,0
				C484.5,333.9,481.8,333.9,481.7,335.6L481.7,335.6z"/>
		</g>
	</g>
	<g class="st6">
		<path class="st7" d="M472.4,270.8c-0.6,6.6,4.2,12.4,10.7,13c6.5,0.6,12.3-4.2,12.9-10.8c0.6-6.6-4.2-12.4-10.7-13
			C478.8,259.4,473,264.2,472.4,270.8z"/>
		<path class="st7" d="M494.1,288.2c-0.4,4.2,2.7,8,6.9,8.4c4.2,0.4,7.9-2.7,8.3-6.9c0.4-4.2-2.7-8-6.9-8.4
			C498.2,280.8,494.5,283.9,494.1,288.2z"/>
	</g>
</g>
<g>
	<g>
		<path class="st12" d="M372.2,433.3c0,42.3-43.1,76.5-96.2,76.5s-96.2-34.3-96.2-76.5s43.1-76.6,96.2-76.6S372.2,391,372.2,433.3z"
			/>
		<path class="st8" d="M315.6,356.7c-19.2-11.2-31.6-3.7-31.6-3.7l-6.9-0.5h-6.6l-6.9,0.5c0,0-12.3-7.5-31.6,3.7
			C212.9,367.9,200,360,200,360s7.1,19.2,25.5,20.1c18.4,0.8,26.8-7.1,26.8-7.1s-15,22.2-3.3,35.1c0,0,4.6-8.8,14.9-13
			c4.8-2,8.1-4.3,10.2-7.2c2,2.9,5.4,5.3,10.2,7.2c10.2,4.2,14.9,13,14.9,13c11.7-13-3.3-35.1-3.3-35.1s8.4,7.9,26.7,7.1
			c18.4-0.8,25.5-20.1,25.5-20.1S334.9,367.9,315.6,356.7z"/>
		<path class="st0" d="M272.5,368.5c0,0-19.5-31.9-16.4-37.2c3.1-5.3,15-7.5,19.5-2.2C280,334.4,283,376.4,272.5,368.5z"/>
	</g>
	<g>
		<g>
			<path class="st4" d="M240,430.6c-5.2-2.4-10.5-4.9-15.7-7.3c-2.5-1.2-4.7,2.6-2.2,3.7c3.9,1.8,7.8,3.6,11.7,5.4
				c-3.9,1.8-7.8,3.6-11.7,5.4c-2.5,1.2-0.3,4.9,2.2,3.8c5.2-2.4,10.5-4.9,15.7-7.3C241.4,433.6,241.4,431.2,240,430.6z"/>
			<g>
				<g>
					<g>
						<path class="st4" d="M331.1,432.4c0,4.7-3.8,8.5-8.5,8.5c-4.7,0-8.5-3.8-8.5-8.5c0-4.7,3.8-8.5,8.5-8.5
							C327.3,423.9,331.1,427.7,331.1,432.4z"/>
						<path class="st7" d="M321.9,429.6c0,1.2-1,2.2-2.1,2.2c-1.2,0-2.1-1-2.1-2.2c0-1.2,1-2.1,2.1-2.1
							C320.9,427.5,321.9,428.4,321.9,429.6z"/>
					</g>
				</g>
			</g>
			<g>
				<path class="st4" d="M283.6,439.5c-0.2,4.9-2.9,9.8-8.2,10.1c-5.3,0.3-8.1-5.7-8.2-10.1c-0.1-2.9-4.6-2.9-4.5,0
					c0.3,7.5,4.9,14.2,12.7,14.6c7.9,0.4,12.5-7.8,12.7-14.6C288.3,436.6,283.8,436.6,283.6,439.5L283.6,439.5z"/>
			</g>
		</g>
		<g>
			<path class="st5" d="M240.7,458.7c0,4.7-5.6,8.4-12.6,8.4c-6.9,0-12.6-3.8-12.6-8.4c0-4.7,5.6-8.4,12.6-8.4
				C235.1,450.3,240.7,454,240.7,458.7z"/>
			<path class="st5" d="M335.2,458.7c0,4.7-5.6,8.4-12.6,8.4c-6.9,0-12.6-3.8-12.6-8.4c0-4.7,5.6-8.4,12.6-8.4
				C329.6,450.3,335.2,454,335.2,458.7z"/>
		</g>
	</g>
	<g class="st6">
		<path class="st7" d="M315.7,395.6c0.2,6.6,5.7,11.9,12.2,11.7c6.6-0.2,11.8-5.7,11.6-12.3c-0.2-6.6-5.7-11.9-12.2-11.7
			C320.7,383.5,315.5,389,315.7,395.6z"/>
		<path class="st7" d="M339.4,410.3c0.1,4.3,3.6,7.6,7.8,7.5c4.2-0.1,7.6-3.6,7.4-7.9c-0.1-4.3-3.6-7.6-7.8-7.5
			C342.6,402.5,339.3,406.1,339.4,410.3z"/>
	</g>
</g>
<g>
	<path class="st13" d="M657.7,261.8c0,0-35.4-4.5-40.1,30.9c-4.7,35.4-4.7,70.7-42.4,110.8c-37.7,40.1-40.1,96.6,18.9,115.5
		c58.9,18.9,132-42.8,132-128.7S704.8,263.9,657.7,261.8z"/>
	<g>
		<path class="st0" d="M653.1,254.7c0,0-30,0-36.5,24.8c-6.5,24.8-17.6,26.8-17.6,26.8s27.9,9.1,40.7-13.7c0,0,1.1,23.8,29.1,28.6
			c0,0-1.3-15.1,7.8-29.3c0,0,21.2,26.3,49.4,14.5c0,0-10.9-9.8-14.8-23.5C707.3,269,691.6,251.4,653.1,254.7z"/>
		<path class="st0" d="M658.4,266c0,0-19.1-31.3-16.1-36.5c3-5.2,14.8-7.4,19.1-2.2C665.7,232.5,668.7,273.8,658.4,266z"/>
	</g>
	<g class="st6">
		<path class="st7" d="M673.5,339.2c-0.7,6.9,4.4,13,11.2,13.6c6.8,0.6,12.9-4.4,13.5-11.3c0.6-6.9-4.4-13-11.2-13.6
			C680.2,327.3,674.1,332.3,673.5,339.2z"/>
		<path class="st7" d="M696.1,357.4c-0.4,4.4,2.8,8.3,7.2,8.7c4.4,0.4,8.3-2.8,8.7-7.3c0.4-4.4-2.8-8.3-7.2-8.7
			C700.5,349.7,696.6,353,696.1,357.4z"/>
	</g>
	<g>
		<g>
			<g>
				<g>
					<path class="st4" d="M591.3,426c0.4-8,12-8,12.5,0c0.1,2.3,3.7,2.3,3.5,0c-0.3-5.5-4.2-9.5-9.8-9.8c-5.5-0.3-9.5,4.7-9.8,9.8
						C587.6,428.2,591.1,428.2,591.3,426L591.3,426z"/>
				</g>
			</g>
			<g>
				<g>
					<path class="st4" d="M674.2,426c0.4-8,12-8,12.5,0c0.1,2.3,3.7,2.3,3.5,0c-0.3-5.5-4.2-9.5-9.8-9.8c-5.5-0.3-9.5,4.7-9.8,9.8
						C670.5,428.2,674.1,428.2,674.2,426L674.2,426z"/>
				</g>
			</g>
		</g>
		<g>
			<path class="st5" d="M609.8,440.2c0,4-4.9,7.3-10.9,7.3c-6,0-10.9-3.3-10.9-7.3c0-4,4.9-7.3,10.9-7.3
				C604.9,432.8,609.8,436.1,609.8,440.2z"/>
			<path class="st5" d="M691.6,440.2c0,4-4.9,7.3-10.9,7.3c-6,0-10.9-3.3-10.9-7.3c0-4,4.9-7.3,10.9-7.3
				C686.7,432.8,691.6,436.1,691.6,440.2z"/>
		</g>
		<g>
			<path class="st4" d="M648.9,424.2c-0.6,11.4-17.8,11.4-18.4,0c-0.1-2.2-3.6-2.2-3.5,0c0.9,15.8,24.5,15.8,25.4,0
				C652.5,422,649,422,648.9,424.2L648.9,424.2z"/>
		</g>
	</g>
</g>
<g>
	<g>
		<g>
			<path class="st8" d="M372.2,426.9c0,0-34.7-103.8-22.5-106.3C361.9,318,372.2,426.9,372.2,426.9z"/>
			<path class="st8" d="M370.6,426.9c0,0,34.7-103.8,22.5-106.3C380.9,318,370.6,426.9,370.6,426.9z"/>
		</g>
		<path class="st0" d="M371.2,424.7c0,0-12.5-108.7,0-108.7C383.7,316.1,371.2,424.7,371.2,424.7z"/>
	</g>
	<path class="st14" d="M306.8,472.2c0,28,28.8,50.8,64.4,50.8c35.5,0,64.4-22.7,64.4-50.8c0-20.7-15.8-38.5-38.4-46.4
		c0,0-21.9-10-26-29.6c-4.1,19.6-26,29.5-26,29.6C322.6,433.6,306.8,451.5,306.8,472.2z"/>
	<g class="st15">
		<path class="st16" d="M370.3,445.2c-0.7,0.2-1.2,0.5-1.7,0.7c-2,1.2-3.3,2.7-4.4,4.2c-2.2,3.1-3.5,6.5-4.4,9.9
			c-0.5,1.7-0.8,3.5-1,5.3l-0.3,2.7l-0.1,2.6c0,3.6,0.3,7.1,1.2,10.6c0.8,3.5,2,6.9,4.2,10c1.1,1.6,2.3,3.1,4.3,4.3
			c0.6,0.3,1,0.6,1.8,0.8c0.4,0.1,0.8,0.2,1.1,0.3l0,0l0-2.2c-0.2-0.1-0.5-0.4-0.8-0.5c-1.2-0.9-2.1-2.3-2.9-3.8
			c-0.7-1.4-1.3-3-1.7-4.6c-0.5-1.6-0.8-3.2-1-4.9c-0.4-3.3-0.8-6.7-0.6-10.1l0.1-2.6l0.2-2.5c0.2-1.7,0.4-3.3,0.7-5
			c0.3-1.6,0.7-3.3,1.2-4.8c0.5-1.6,1-3.1,1.8-4.5c0.8-1.4,1.7-2.8,2.9-3.7c0.3-0.2,0.5-0.4,0.8-0.5l0-2.2c-0.1,0-0.1,0-0.2,0
			C371,445,370.6,445.1,370.3,445.2z"/>
		<path class="st16" d="M365.8,505.3c-3.7-0.7-7.4-1.8-10.6-3.5c-3.3-1.7-6.3-3.6-8.8-6c-2.5-2.3-4.8-4.9-6.4-7.7
			c-3.5-5.5-5-11.7-5-17.8l0.1-2.3l0.1-1.2c0-0.4,0.1-0.7,0.2-1.1l0.4-2.2c0.2-0.7,0.4-1.5,0.6-2.2c0.4-1.5,1.1-2.9,1.7-4.4
			c0.8-1.4,1.4-2.9,2.4-4.2c1.7-2.7,4-5.2,6.6-7.5c2.5-2.3,5.6-4.2,8.9-5.8c3.3-1.6,7-2.7,10.8-3.3c1.6-0.3,3.3-0.4,5-0.5l0-2
			c-6,0-12.3,1.1-17.8,3.4c-7.7,3.1-13.9,8.2-18,14.1c-1.1,1.4-1.9,3-2.8,4.5c-0.6,1.6-1.5,3.1-1.9,4.8c-0.2,0.8-0.5,1.6-0.7,2.4
			l-0.5,2.5c-0.1,0.4-0.2,0.8-0.2,1.3l-0.1,1.2l-0.2,2.5c0.1,3.3,0.4,6.7,1.5,9.9c0.4,1.6,1.2,3.2,1.8,4.8c0.9,1.5,1.6,3.1,2.7,4.6
			c3.9,6,10.1,11.2,17.7,14.5c3.8,1.7,7.9,2.8,12.1,3.4c1.1,0.1,2.2,0.3,3.2,0.4c0.8,0,1.6,0.1,2.4,0.1l0-2
			c-0.7-0.1-1.5-0.1-2.2-0.2C367.6,505.7,366.7,505.5,365.8,505.3z"/>
		<path class="st16" d="M349.7,507.5c-9.1-3.4-17-8.8-22.5-15.4l-1.9-2.5c-0.6-0.9-1.1-1.8-1.6-2.6c-0.3-0.4-0.6-0.9-0.8-1.3
			l-0.6-1.4c-0.4-0.9-0.9-1.8-1.2-2.7l-0.9-2.8c-0.3-0.9-0.4-1.9-0.6-2.8l-0.3-1.4c-0.1-0.5-0.1-1-0.1-1.4l-0.2-2.8l0.2-3
			c0.1-0.5,0-1,0.1-1.5l0.3-1.4c0.2-0.9,0.3-1.9,0.7-2.8l1-2.8c0.3-0.9,0.9-1.8,1.3-2.7l0.7-1.3c0.2-0.4,0.6-0.9,0.8-1.3
			c0.6-0.9,1.1-1.7,1.7-2.6l2-2.5c5.6-6.4,13.6-11.6,22.8-14.8c4.6-1.6,9.4-2.7,14.3-3.2c2.3-0.3,4.5-0.4,6.8-0.5l0-2
			c-2.4,0-4.8,0-7.3,0.3c-5.2,0.4-10.5,1.4-15.5,2.9c-1.2,0.4-2.5,0.8-3.8,1.2c-1.2,0.5-2.4,1-3.6,1.5c-1.2,0.5-2.3,1.1-3.5,1.7
			c-1.1,0.6-2.3,1.1-3.3,1.8c-1.1,0.7-2.1,1.3-3.2,2c-1,0.7-1.9,1.5-2.9,2.2c-1,0.7-1.9,1.6-2.7,2.4c-0.8,0.8-1.8,1.6-2.5,2.5
			c-3.3,3.4-5.5,7.3-7.3,11.2l-1.1,3c-0.4,1-0.5,2.1-0.8,3.1l-0.3,1.6c-0.1,0.5-0.1,1-0.2,1.5l-0.3,3l0.2,3.2c0.1,0.5,0,1,0.1,1.6
			l0.3,1.6c0.2,1,0.3,2.1,0.7,3.1l1,3.1c1.7,4,3.9,7.9,7,11.4c0.7,0.9,1.6,1.7,2.5,2.6c0.8,0.8,1.7,1.7,2.7,2.4
			c1,0.8,1.9,1.6,2.8,2.3c1,0.7,2.1,1.4,3.1,2.1c1,0.7,2.2,1.3,3.3,1.9c1.1,0.6,2.2,1.2,3.4,1.7c1.2,0.5,2.4,1.1,3.6,1.6
			c1.2,0.4,2.5,0.9,3.7,1.3c5,1.6,10.2,2.8,15.5,3.3c2.5,0.4,4.9,0.4,7.2,0.4l0-2c-2.3-0.1-4.7-0.2-6.8-0.6
			C359.1,510.4,354.2,509.1,349.7,507.5z"/>
		<path class="st16" d="M373.8,495.7c2-1.2,3.3-2.7,4.4-4.2c2.2-3.1,3.5-6.5,4.4-9.9c1-3.4,1.3-7,1.4-10.6l-0.1-2.6l-0.2-2.7
			c-0.2-1.8-0.4-3.5-0.9-5.3c-0.8-3.5-2-6.9-4.2-10c-1.1-1.6-2.3-3.1-4.3-4.3c-0.6-0.3-1-0.6-1.7-0.8c-0.3-0.1-0.7-0.2-1-0.3
			c-0.1,0-0.1,0-0.2,0l0,2.2c0.3,0.1,0.5,0.4,0.8,0.5c1.2,0.9,2.1,2.3,2.9,3.7c0.8,1.4,1.3,3,1.7,4.6c0.5,1.6,0.8,3.2,1.1,4.9
			c0.2,1.7,0.4,3.3,0.5,5l0.1,2.5l0,2.6c0,3.4-0.4,6.8-0.9,10.1c-0.3,1.6-0.7,3.3-1.2,4.8c-0.5,1.6-1,3.1-1.8,4.5
			c-0.8,1.4-1.7,2.8-3,3.7c-0.3,0.1-0.6,0.4-0.8,0.5l0,2.2l0,0c0.4-0.1,0.7-0.2,1.1-0.3C372.9,496.2,373.2,495.9,373.8,495.7z"/>
		<path class="st16" d="M371.8,504.1l0.7-0.1l1.3-0.2l0.7-0.1l0.6-0.2c3.2-1,5.8-2.6,7.9-4.5c4.2-3.8,6.9-8.4,8.7-13.1
			c1.8-4.8,2.6-9.7,2.7-14.7c0-1.3-0.1-2.4-0.1-3.7c-0.1-1.3-0.2-2.5-0.4-3.8c-0.4-2.5-0.9-4.9-1.8-7.3c-1.6-4.8-4.2-9.4-8.4-13.3
			c-2-1.9-4.7-3.7-7.8-4.7c-1.3-0.4-2.8-0.7-4.2-0.8c-1.4,0.1-2.9,0.3-4.2,0.7c-3.2,1-5.8,2.6-7.9,4.5c-4.2,3.8-6.9,8.4-8.7,13.1
			c-1,2.4-1.5,4.8-2,7.3c-0.3,1.2-0.3,2.5-0.5,3.8c-0.1,1.3-0.2,2.4-0.2,3.7c0,5,0.7,10,2.4,14.8c1.6,4.8,4.3,9.4,8.3,13.3
			c2,1.9,4.7,3.7,7.8,4.7l0.6,0.2l0.7,0.1l1.3,0.3l0.7,0.1l0.6,0l0.4,0l0.4,0L371.8,504.1z M370.8,502.1l-0.1,0l-0.6-0.1l-0.4-0.1
			l-0.9-0.3l-0.4-0.1l-0.4-0.2c-2.4-1-4.4-2.5-6-4.3c-3.3-3.6-5.3-8-6.6-12.5c-1.2-4.5-1.9-9.2-1.8-13.9c0.1-1.1,0.1-2.4,0.2-3.6
			c0.2-1.2,0.2-2.3,0.4-3.5c0.2-1.2,0.4-2.3,0.7-3.5l0.4-1.7l0.5-1.7c0.7-2.3,1.6-4.4,2.7-6.5c1.1-2.1,2.5-4,4.2-5.8
			c1.7-1.8,3.7-3.2,6.1-4.1c0.9-0.3,1.9-0.5,2.8-0.7c1,0.1,1.9,0.4,2.8,0.7c2.4,1,4.4,2.5,6,4.3c1.6,1.8,3,3.8,4,5.9
			c1.1,2.1,2,4.3,2.6,6.6l0.5,1.7l0.3,1.7c0.3,1.1,0.4,2.3,0.6,3.5c0.2,1.2,0.2,2.3,0.3,3.5c0.1,1.2,0,2.5,0.1,3.6
			c0,4.7-0.8,9.4-2.1,13.9c-1.4,4.5-3.6,8.8-6.9,12.3c-1.7,1.8-3.7,3.2-6.1,4.1l-0.4,0.2l-0.4,0.1l-0.9,0.2l-0.4,0.1l-0.6,0.1
			L370.8,502.1z"/>
		<path class="st16" d="M387.3,439.8c3.3,1.7,6.3,3.6,8.8,6c2.5,2.3,4.8,4.9,6.4,7.7c0.9,1.3,1.5,2.8,2.3,4.2
			c0.5,1.5,1.2,2.9,1.6,4.4c0.2,0.7,0.4,1.5,0.6,2.2l0.3,2.2c0,0.4,0.1,0.7,0.2,1.1l0,1.2l0.1,2.3c-0.1,6.1-1.8,12.2-5.4,17.6
			c-1.7,2.7-4,5.2-6.6,7.5c-2.5,2.3-5.6,4.2-8.9,5.8c-3.3,1.6-7,2.7-10.7,3.3c-0.9,0.1-1.8,0.3-2.8,0.4c-0.7,0-1.5,0.1-2.2,0.1l0,2
			c0.8,0,1.6,0,2.4,0c1,0,2.1-0.2,3.2-0.3c4.3-0.5,8.4-1.5,12.2-3.1c7.7-3.1,13.9-8.2,18-14.1c1.1-1.4,1.9-3,2.8-4.5
			c0.6-1.6,1.5-3.1,1.9-4.8c1.1-3.2,1.5-6.5,1.7-9.9l-0.1-2.5l-0.1-1.2c0-0.4-0.1-0.8-0.2-1.3l-0.4-2.5c-0.2-0.8-0.4-1.6-0.7-2.5
			c-0.4-1.6-1.2-3.2-1.8-4.8c-0.9-1.5-1.6-3.1-2.7-4.6c-3.9-6-10-11.2-17.7-14.5c-5.4-2.5-11.7-3.7-17.7-3.9l0,2
			c1.7,0.1,3.3,0.3,4.9,0.6C380.3,436.9,384,438.1,387.3,439.8z"/>
		<path class="st16" d="M428.7,468.4c-0.1-0.5,0-1-0.1-1.5l-0.3-1.6c-0.2-1.1-0.3-2.1-0.7-3.2l-1-3.1c-1.7-4-3.9-7.9-7-11.4
			c-0.7-0.9-1.6-1.7-2.5-2.6c-0.8-0.8-1.7-1.7-2.7-2.4c-0.9-0.8-1.9-1.6-2.8-2.3c-1-0.7-2.1-1.4-3.1-2.1c-1-0.7-2.2-1.3-3.3-1.9
			c-1.1-0.6-2.2-1.2-3.4-1.7c-1.2-0.5-2.4-1.1-3.6-1.6c-1.2-0.4-2.5-0.9-3.7-1.3c-5-1.6-10.2-2.8-15.4-3.3c-2.4-0.3-4.9-0.4-7.3-0.5
			l0,2c2.3,0.1,4.5,0.2,6.8,0.6c4.9,0.6,9.7,1.9,14.3,3.6c9.1,3.4,17,8.8,22.5,15.4l1.9,2.5c0.6,0.9,1.1,1.8,1.6,2.6
			c0.3,0.4,0.6,0.9,0.8,1.3l0.6,1.4c0.4,0.9,0.9,1.8,1.2,2.7l0.9,2.8c0.3,0.9,0.4,1.9,0.6,2.8l0.3,1.4c0.1,0.5,0.1,1,0.1,1.5l0.2,3
			l-0.2,2.8c-0.1,0.5,0,1-0.1,1.4l-0.3,1.4c-0.2,0.9-0.3,1.9-0.7,2.8l-1,2.8c-0.3,0.9-0.9,1.8-1.3,2.7l-0.7,1.3
			c-0.2,0.4-0.6,0.9-0.8,1.3c-0.6,0.9-1.1,1.7-1.7,2.6l-2,2.5c-5.6,6.4-13.6,11.6-22.8,14.8c-4.6,1.6-9.5,2.7-14.3,3.2
			c-2.2,0.3-4.5,0.4-6.8,0.5l0,2c2.4,0,4.7,0,7.2-0.3c5.3-0.4,10.5-1.4,15.6-3c1.3-0.4,2.5-0.8,3.8-1.2c1.2-0.5,2.4-1,3.6-1.5
			c1.2-0.5,2.3-1.1,3.5-1.7c1.1-0.6,2.3-1.1,3.3-1.8c1.1-0.7,2.1-1.3,3.2-2c1-0.7,1.9-1.5,2.9-2.2c1-0.7,1.9-1.5,2.7-2.4
			c0.8-0.8,1.8-1.6,2.5-2.5c3.2-3.4,5.6-7.3,7.3-11.2l1.1-3c0.4-1,0.5-2.1,0.8-3.1l0.3-1.5c0.1-0.5,0.1-1,0.2-1.6l0.3-3.2
			L428.7,468.4z"/>
	</g>
	<g>
		<g>
			<g>
				<g>
					<path class="st4" d="M335.5,475.6c0.3-6.1,9.1-6.1,9.4,0c0.1,1.7,2.8,1.7,2.7,0c-0.2-4.2-3.2-7.2-7.4-7.4
						c-4.2-0.2-7.2,3.6-7.4,7.4C332.8,477.4,335.4,477.4,335.5,475.6L335.5,475.6z"/>
				</g>
			</g>
			<g>
				<g>
					<path class="st4" d="M398.3,475.6c0.3-6.1,9.1-6.1,9.4,0c0.1,1.7,2.8,1.7,2.7,0c-0.2-4.2-3.2-7.2-7.4-7.4
						c-4.2-0.2-7.2,3.6-7.4,7.4C395.6,477.4,398.2,477.4,398.3,475.6L398.3,475.6z"/>
				</g>
			</g>
		</g>
		<g>
			<path class="st5" d="M349.5,486.4c0,3.1-3.7,5.5-8.3,5.5c-4.6,0-8.3-2.5-8.3-5.5c0-3.1,3.7-5.5,8.3-5.5
				C345.8,480.9,349.5,483.3,349.5,486.4z"/>
			<path class="st5" d="M411.5,486.4c0,3.1-3.7,5.5-8.3,5.5c-4.6,0-8.3-2.5-8.3-5.5c0-3.1,3.7-5.5,8.3-5.5
				C407.8,480.9,411.5,483.3,411.5,486.4z"/>
		</g>
		<g>
			<path class="st4" d="M365.2,482c0.5-8.6,13.5-8.6,14,0c0.1,1.7,2.7,1.7,2.6,0c-0.7-12-18.5-12-19.2,0
				C362.5,483.7,365.1,483.7,365.2,482L365.2,482z"/>
		</g>
	</g>
	<g class="st6">
		<path class="st7" d="M372.9,443.3c1.5,4.8,6.5,7.5,11.3,6.1c4.8-1.5,7.5-6.6,6-11.4c-1.5-4.8-6.5-7.5-11.3-6.1
			C374.1,433.4,371.4,438.4,372.9,443.3z"/>
		<path class="st7" d="M393.2,449.2c0.9,3.1,4.2,4.8,7.3,3.9c3.1-0.9,4.8-4.2,3.8-7.3c-0.9-3.1-4.2-4.8-7.3-3.9
			C394,442.8,392.3,446.1,393.2,449.2z"/>
	</g>
</g>
</svg>
